<?xml version="1.0" standalone="no"?>
<!DOCTYPE svg PUBLIC "-//W3C//DTD SVG 20010904//EN"
 "http://www.w3.org/TR/2001/REC-SVG-20010904/DTD/svg10.dtd">
<svg version="1.0" xmlns="http://www.w3.org/2000/svg"
 width="450.000000pt" height="450.000000pt" viewBox="0 0 450.000000 450.000000"
 preserveAspectRatio="xMidYMid meet">
<metadata>
Created by potrace 1.11, written by Peter Selinger 2001-2013
</metadata>
<g transform="translate(0.000000,450.000000) scale(0.100000,-0.100000)"
fill="#000000" stroke="none">
<path d="M2986 4030 c-16 -3 -34 -14 -40 -24 -6 -11 -20 -30 -31 -42 -37 -42
-41 -49 -37 -68 3 -11 0 -16 -7 -12 -6 4 -10 27 -9 52 0 24 -2 47 -5 51 -11
11 -57 -15 -57 -32 0 -9 -4 -14 -9 -11 -12 8 -11 -46 1 -61 6 -7 9 -13 7 -14
-2 0 -13 -2 -24 -4 -11 -1 -31 -5 -45 -8 -14 -3 -42 -8 -62 -12 -38 -7 -43
-13 -38 -50 1 -11 3 -460 4 -997 l1 -978 -50 6 c-27 4 -52 8 -55 11 -3 2 -5
384 -5 848 0 556 -4 848 -10 854 -6 6 -57 13 -113 16 -57 3 -112 10 -122 15
-13 7 -21 7 -25 0 -4 -6 -38 -9 -81 -8 l-74 3 0 32 c0 54 -40 55 -45 1 -1 -13
-3 -26 -4 -29 -2 -10 -155 -10 -171 0 -8 6 -19 6 -25 1 -5 -4 -50 -11 -100
-14 -114 -7 -125 -9 -136 -27 -5 -8 -9 -193 -8 -428 0 -332 -2 -416 -13 -422
-7 -5 -8 -9 -3 -9 6 0 5 -3 -1 -8 -27 -17 -55 -89 -55 -138 0 -17 -5 -20 -39
-19 -22 1 -42 4 -45 6 -5 6 -9 867 -5 1102 2 131 1 139 -20 157 -25 21 -101
40 -164 40 -27 0 -49 6 -62 18 -40 39 -84 92 -84 102 0 17 -39 27 -99 24 -45
-2 -59 -7 -74 -26 -54 -68 -89 -108 -96 -108 -4 0 -7 16 -6 35 1 19 -4 40 -11
46 -10 9 -14 9 -14 0 0 -6 -5 -11 -10 -11 -15 0 -61 -51 -55 -60 3 -5 -24 -18
-59 -30 -36 -11 -70 -28 -78 -37 -13 -16 -15 -138 -19 -1548 -1 -284 -5 -465
-11 -472 -16 -20 -18 -165 -3 -188 8 -14 13 -61 13 -140 0 -206 0 -202 26
-227 37 -36 66 -58 66 -51 0 4 5 2 12 -5 7 -7 20 -12 30 -12 10 0 18 -5 18
-12 0 -6 3 -9 6 -5 3 3 23 -1 44 -8 53 -19 131 -28 228 -26 77 1 104 4 157 15
85 19 85 19 87 0 2 -29 4 -37 13 -64 5 -14 9 -38 10 -55 3 -61 43 -91 76 -58
8 8 27 6 67 -5 55 -15 222 -20 350 -11 39 2 56 -1 62 -11 6 -8 10 -71 11 -140
0 -69 3 -136 5 -150 4 -23 60 -81 73 -77 3 1 15 -4 27 -10 11 -7 33 -15 47
-18 15 -3 39 -7 54 -11 56 -11 281 -10 348 2 115 20 121 22 153 38 16 8 32 12
36 9 3 -4 6 -1 6 5 0 7 6 12 14 12 20 0 46 45 46 80 0 35 3 35 61 14 46 -16
53 -18 134 -30 142 -21 392 3 489 47 28 13 46 48 46 89 0 27 3 30 33 30 59 1
181 14 217 23 73 18 101 31 111 48 11 22 12 103 4 584 -2 143 -4 343 -4 445 0
102 0 192 0 200 -1 110 -1 181 1 317 3 154 2 163 -17 173 -24 12 -78 20 -158
23 -55 3 -76 14 -77 42 0 6 -12 24 -26 40 -14 17 -33 42 -42 58 -9 15 -19 27
-22 27 -4 0 -6 243 -6 541 1 297 -2 543 -7 546 -7 4 -45 13 -82 18 -11 2 -20
4 -20 5 0 1 -22 4 -50 6 -68 6 -71 8 -79 40 -4 16 -21 41 -37 56 -16 16 -29
33 -29 38 0 5 -10 16 -23 25 -23 15 -43 16 -101 5z"/>
</g>
</svg>
